<svg xmlns="http://www.w3.org/2000/svg" viewBox="0 0 383.23 383.24"><g id="Layer_2" data-name="Layer 2"><g id="Layer_1-2" data-name="Layer 1"><path d="M0,187.12a67.71,67.71,0,0,1,2.68-8.5C8.9,165,19.63,158,34.55,158c39.54-.12,79.09,0,118.64,0h4.75v-4.74q0-59.52,0-119C158,15.23,172.57.28,191,0a33.58,33.58,0,0,1,34.3,34c.12,33.93,0,67.87,0,101.8v22.16h4.55q59.52,0,119,0C367.61,158,382.51,172,383.2,190a33.59,33.59,0,0,1-33.75,35.24c-25.45.13-50.9,0-76.35,0H225.31V346.07c0,20.24-9,31.86-28.55,36.79a2.64,2.64,0,0,0-.64.38h-9a2.64,2.64,0,0,0-.64-.38c-19.68-5.14-28.55-16.56-28.55-36.8V225.3h-4.75q-59.31,0-118.64,0c-17,0-30-10.5-33.86-27.08-.17-.72-.46-1.4-.69-2.1Z"/></g></g></svg>