<svg width="20" height="21" viewBox="0 0 20 21" fill="none" xmlns="http://www.w3.org/2000/svg">
<path d="M7.29163 8.75C7.29163 7.99579 7.57697 7.27247 8.08488 6.73917C8.59279 6.20586 9.28166 5.90625 9.99996 5.90625C10.7183 5.90625 11.4071 6.20586 11.915 6.73917C12.423 7.27247 12.7083 7.99579 12.7083 8.75C12.7083 9.50421 12.423 10.2275 11.915 10.7608C11.4071 11.2941 10.7183 11.5938 9.99996 11.5938C9.28166 11.5938 8.59279 11.2941 8.08488 10.7608C7.57697 10.2275 7.29163 9.50421 7.29163 8.75Z" fill="black"/>
<path fill-rule="evenodd" clip-rule="evenodd" d="M3.14494 7.76737C3.28355 6.00841 4.04679 4.36841 5.28324 3.17274C6.51969 1.97706 8.13901 1.31307 9.81994 1.3125H10.1799C11.8609 1.31307 13.4802 1.97706 14.7166 3.17274C15.9531 4.36841 16.7163 6.00841 16.8549 7.76737C17.0088 9.73123 16.4313 11.6812 15.2441 13.2072L11.2499 18.3365C11.0986 18.5311 10.9079 18.6878 10.6917 18.7955C10.4755 18.9032 10.2392 18.959 9.99994 18.959C9.76067 18.959 9.52439 18.9032 9.3082 18.7955C9.09202 18.6878 8.90133 18.5311 8.74994 18.3365L4.75661 13.2072C3.56907 11.6813 2.99135 9.73135 3.14494 7.76737ZM9.99994 4.59375C8.95012 4.59375 7.94331 5.03164 7.20098 5.81109C6.45864 6.59054 6.04161 7.64769 6.04161 8.75C6.04161 9.85231 6.45864 10.9095 7.20098 11.6889C7.94331 12.4684 8.95012 12.9062 9.99994 12.9062C11.0498 12.9062 12.0566 12.4684 12.7989 11.6889C13.5412 10.9095 13.9583 9.85231 13.9583 8.75C13.9583 7.64769 13.5412 6.59054 12.7989 5.81109C12.0566 5.03164 11.0498 4.59375 9.99994 4.59375Z" fill="black"/>
</svg>
