<svg width="40" height="36" viewBox="0 0 40 36" fill="none" xmlns="http://www.w3.org/2000/svg">
<path d="M10.5328 19.0238L33.182 18.6832C33.5052 18.6784 33.8134 18.5585 34.0388 18.35C34.2643 18.1414 34.3885 17.8613 34.3841 17.5713C34.3798 17.2812 34.2472 17.005 34.0156 16.8034C33.784 16.6017 33.4723 16.4911 33.1491 16.496L10.4999 16.8365L19.2686 8.72817C19.4943 8.51937 19.6187 8.23892 19.6143 7.94851C19.61 7.65809 19.4772 7.38151 19.2453 7.17959C19.0134 6.97768 18.7013 6.86698 18.3777 6.87184C18.0541 6.87671 17.7455 6.99674 17.5198 7.20554L6.70024 17.2131C6.58828 17.3164 6.50006 17.4384 6.44062 17.5722C6.38119 17.706 6.35171 17.8489 6.35387 17.9927C6.35603 18.1366 6.3898 18.2786 6.45323 18.4105C6.51666 18.5424 6.60851 18.6618 6.72352 18.7617L17.839 28.4394C18.0709 28.6413 18.383 28.752 18.7066 28.7471C19.0302 28.7423 19.3388 28.6222 19.5646 28.4134C19.7903 28.2046 19.9147 27.9242 19.9103 27.6338C19.9059 27.3434 19.7732 27.0668 19.5413 26.8649L10.5328 19.0238Z" fill="black"/>
</svg>
