<svg width="24" height="24" viewBox="0 0 24 24" fill="none" xmlns="http://www.w3.org/2000/svg">
<path d="M9.00001 10C8.73479 10 8.48044 10.1054 8.2929 10.2929C8.10536 10.4804 8.00001 10.7348 8.00001 11V15H10V12H13V14.5L16.5 11L13 7.50001V10H9.00001ZM12.707 1.39301L22.607 11.293C22.7945 11.4805 22.8998 11.7348 22.8998 12C22.8998 12.2652 22.7945 12.5195 22.607 12.707L12.707 22.607C12.5195 22.7945 12.2652 22.8998 12 22.8998C11.7348 22.8998 11.4805 22.7945 11.293 22.607L1.39301 12.707C1.20554 12.5195 1.10022 12.2652 1.10022 12C1.10022 11.7348 1.20554 11.4805 1.39301 11.293L11.293 1.39301C11.4805 1.20554 11.7348 1.10022 12 1.10022C12.2652 1.10022 12.5195 1.20554 12.707 1.39301Z" fill="black"/>
</svg>
