<svg width="168" height="92" viewBox="0 0 168 92" fill="none" xmlns="http://www.w3.org/2000/svg">
<path d="M22.48 51V22.2H35.4C37.5067 22.2 39.3067 22.56 40.8 23.28C42.32 24 43.48 25.0133 44.28 26.32C45.1067 27.6267 45.52 29.1733 45.52 30.96C45.52 32.72 45.1067 34.2667 44.28 35.6C43.4533 36.9333 42.2933 37.9733 40.8 38.72C39.3067 39.44 37.5067 39.8 35.4 39.8H26.52V35.72H35.16C36.8133 35.72 38.08 35.2933 38.96 34.44C39.8667 33.5867 40.32 32.4267 40.32 30.96C40.32 29.52 39.8667 28.3867 38.96 27.56C38.08 26.7333 36.8133 26.32 35.16 26.32H27.68V51H22.48ZM60.8297 51C60.6964 50.4667 60.5897 49.88 60.5097 49.24C60.4564 48.6 60.4297 47.8267 60.4297 46.92H60.2697V37.24C60.2697 36.1733 59.963 35.3733 59.3497 34.84C58.763 34.28 57.8564 34 56.6297 34C55.4297 34 54.4697 34.2267 53.7497 34.68C53.0564 35.1067 52.6297 35.7333 52.4697 36.56H47.6297C47.843 34.6667 48.7497 33.1333 50.3497 31.96C51.9497 30.7867 54.0964 30.2 56.7897 30.2C59.5897 30.2 61.7097 30.84 63.1497 32.12C64.5897 33.3733 65.3097 35.2267 65.3097 37.68V46.92C65.3097 47.56 65.3497 48.2133 65.4297 48.88C65.5364 49.5467 65.683 50.2533 65.8697 51H60.8297ZM53.7497 51.4C51.6964 51.4 50.0564 50.8933 48.8297 49.88C47.6297 48.84 47.0297 47.4533 47.0297 45.72C47.0297 43.8533 47.7097 42.3733 49.0697 41.28C50.4297 40.1867 52.3497 39.4533 54.8297 39.08L61.1897 38.12V41.32L55.6697 42.16C54.4697 42.3467 53.563 42.68 52.9497 43.16C52.363 43.64 52.0697 44.3067 52.0697 45.16C52.0697 45.9333 52.3497 46.5333 52.9097 46.96C53.4697 47.36 54.243 47.56 55.2297 47.56C56.6697 47.56 57.8697 47.2 58.8297 46.48C59.7897 45.76 60.2697 44.88 60.2697 43.84L60.8297 46.92C60.2964 48.3867 59.4164 49.5067 58.1897 50.28C56.9897 51.0267 55.5097 51.4 53.7497 51.4ZM70.4144 51V30.6H75.3344V35.52H75.4544V51H70.4144ZM75.4544 40.36L74.9344 35.52C75.4144 33.7867 76.2277 32.4667 77.3744 31.56C78.521 30.6533 79.8944 30.2 81.4944 30.2C82.0544 30.2 82.4544 30.2533 82.6944 30.36V35.12C82.561 35.0667 82.3744 35.04 82.1344 35.04C81.8944 35.0133 81.601 35 81.2544 35C79.3077 35 77.8544 35.4267 76.8944 36.28C75.9344 37.1333 75.4544 38.4933 75.4544 40.36ZM86.0003 51V21.92H91.0403V51H86.0003ZM99.1603 51L89.8803 40.4L98.8803 30.6H104.96L94.5603 41.32L94.8403 39.44L105.36 51H99.1603ZM115.839 51V22.2H121.039V51H115.839ZM135.356 51.4C132.849 51.4 130.996 50.8133 129.796 49.64C128.622 48.44 128.036 46.6533 128.036 44.28V25.96L133.116 24.08V44.4C133.116 45.3867 133.382 46.12 133.916 46.6C134.449 47.08 135.289 47.32 136.436 47.32C136.889 47.32 137.289 47.2933 137.636 47.24C138.009 47.16 138.356 47.0667 138.676 46.96V50.88C138.356 51.04 137.902 51.16 137.316 51.24C136.729 51.3467 136.076 51.4 135.356 51.4ZM124.116 34.56V30.6H138.676V34.56H124.116Z" fill="black"/>
<path d="M118 10.5417C117.337 10.5417 116.701 10.3002 116.232 9.87046C115.763 9.44069 115.5 8.8578 115.5 8.25001C115.5 7.64222 115.763 7.05933 116.232 6.62956C116.701 6.19979 117.337 5.95834 118 5.95834C118.663 5.95834 119.299 6.19979 119.768 6.62956C120.237 7.05933 120.5 7.64222 120.5 8.25001C120.5 8.55096 120.435 8.84896 120.31 9.12699C120.184 9.40503 120 9.65766 119.768 9.87046C119.536 10.0833 119.26 10.2521 118.957 10.3672C118.653 10.4824 118.328 10.5417 118 10.5417ZM118 1.83334C116.143 1.83334 114.363 2.50938 113.05 3.71274C111.737 4.9161 111 6.5482 111 8.25001C111 13.0625 118 20.1667 118 20.1667C118 20.1667 125 13.0625 125 8.25001C125 6.5482 124.263 4.9161 122.95 3.71274C121.637 2.50938 119.857 1.83334 118 1.83334Z" fill="#BD3D3D"/>
<path d="M1.48 85V70.6H4.76L9.56 84.48H8.48L13.24 70.6H16.56V85H14.46V71.46H14.78L10.14 85H7.78L3.14 71.58H3.46V85H1.48ZM25.8269 85C25.7602 84.7467 25.7135 84.4667 25.6869 84.16C25.6735 83.8533 25.6669 83.48 25.6669 83.04H25.5669V78.18C25.5669 77.5267 25.4002 77.04 25.0669 76.72C24.7469 76.3867 24.2335 76.22 23.5269 76.22C22.8469 76.22 22.3002 76.3533 21.8869 76.62C21.4869 76.8867 21.2535 77.2667 21.1869 77.76H19.2069C19.3002 76.8 19.7335 76.0333 20.5069 75.46C21.2802 74.8867 22.3135 74.6 23.6069 74.6C24.9402 74.6 25.9402 74.9133 26.6069 75.54C27.2735 76.1533 27.6069 77.06 27.6069 78.26V83.04C27.6069 83.3467 27.6269 83.66 27.6669 83.98C27.7069 84.3 27.7669 84.64 27.8469 85H25.8269ZM22.3069 85.2C21.2669 85.2 20.4402 84.9467 19.8269 84.44C19.2135 83.92 18.9069 83.22 18.9069 82.34C18.9069 81.4333 19.2269 80.72 19.8669 80.2C20.5202 79.6667 21.4535 79.3067 22.6669 79.12L26.0269 78.58V80.04L22.9869 80.52C22.3069 80.6267 21.7935 80.8067 21.4469 81.06C21.1135 81.3133 20.9469 81.68 20.9469 82.16C20.9469 82.6267 21.1002 82.98 21.4069 83.22C21.7269 83.4467 22.1869 83.56 22.7869 83.56C23.5869 83.56 24.2469 83.3667 24.7669 82.98C25.3002 82.5933 25.5669 82.1067 25.5669 81.52L25.8269 83C25.5869 83.7067 25.1602 84.2533 24.5469 84.64C23.9335 85.0133 23.1869 85.2 22.3069 85.2ZM30.4248 85V70.34H32.5048V85H30.4248ZM37.0448 85L32.0248 79.7L36.8848 74.8H39.5048L33.9848 80.16L34.0848 79.22L39.7048 85H37.0448ZM45.0983 85.2C44.0716 85.2 43.1649 84.9733 42.3783 84.52C41.6049 84.0667 40.9983 83.44 40.5583 82.64C40.1183 81.84 39.8983 80.92 39.8983 79.88C39.8983 78.8267 40.1116 77.9067 40.5383 77.12C40.9783 76.32 41.5916 75.7 42.3783 75.26C43.1649 74.82 44.0649 74.6 45.0783 74.6C46.0649 74.6 46.9183 74.8133 47.6383 75.24C48.3716 75.6533 48.9316 76.2333 49.3183 76.98C49.7183 77.7267 49.9183 78.6133 49.9183 79.64C49.9183 79.8 49.9116 79.9533 49.8983 80.1C49.8983 80.2333 49.8849 80.3733 49.8583 80.52H41.2983V78.96H48.3983L47.8783 79.58C47.8783 78.4867 47.6316 77.6533 47.1383 77.08C46.6449 76.5067 45.9583 76.22 45.0783 76.22C44.1316 76.22 43.3783 76.5467 42.8183 77.2C42.2716 77.84 41.9983 78.7333 41.9983 79.88C41.9983 81.04 42.2716 81.9467 42.8183 82.6C43.3783 83.2533 44.1516 83.58 45.1383 83.58C45.7383 83.58 46.2583 83.46 46.6983 83.22C47.1383 82.9667 47.4649 82.6 47.6783 82.12H49.6383C49.3049 83.08 48.7383 83.8333 47.9383 84.38C47.1516 84.9267 46.2049 85.2 45.0983 85.2ZM62.3113 85C62.2446 84.7467 62.1979 84.4667 62.1713 84.16C62.1579 83.8533 62.1513 83.48 62.1513 83.04H62.0513V78.18C62.0513 77.5267 61.8846 77.04 61.5513 76.72C61.2313 76.3867 60.7179 76.22 60.0113 76.22C59.3313 76.22 58.7846 76.3533 58.3713 76.62C57.9713 76.8867 57.7379 77.2667 57.6713 77.76H55.6913C55.7846 76.8 56.2179 76.0333 56.9913 75.46C57.7646 74.8867 58.7979 74.6 60.0913 74.6C61.4246 74.6 62.4246 74.9133 63.0913 75.54C63.7579 76.1533 64.0913 77.06 64.0913 78.26V83.04C64.0913 83.3467 64.1113 83.66 64.1513 83.98C64.1913 84.3 64.2513 84.64 64.3313 85H62.3113ZM58.7913 85.2C57.7513 85.2 56.9246 84.9467 56.3113 84.44C55.6979 83.92 55.3913 83.22 55.3913 82.34C55.3913 81.4333 55.7113 80.72 56.3513 80.2C57.0046 79.6667 57.9379 79.3067 59.1513 79.12L62.5113 78.58V80.04L59.4713 80.52C58.7913 80.6267 58.2779 80.8067 57.9313 81.06C57.5979 81.3133 57.4313 81.68 57.4313 82.16C57.4313 82.6267 57.5846 82.98 57.8913 83.22C58.2113 83.4467 58.6713 83.56 59.2713 83.56C60.0713 83.56 60.7313 83.3667 61.2513 82.98C61.7846 82.5933 62.0513 82.1067 62.0513 81.52L62.3113 83C62.0713 83.7067 61.6446 84.2533 61.0313 84.64C60.4179 85.0133 59.6713 85.2 58.7913 85.2ZM74.5345 85.2C73.2012 85.2 72.1412 84.9067 71.3545 84.32C70.5679 83.7333 70.1212 82.9067 70.0145 81.84H71.9345C72.0279 82.4267 72.2945 82.88 72.7345 83.2C73.1879 83.5067 73.8012 83.66 74.5745 83.66C75.2545 83.66 75.7745 83.54 76.1345 83.3C76.4945 83.06 76.6745 82.72 76.6745 82.28C76.6745 81.96 76.5679 81.6933 76.3545 81.48C76.1545 81.2533 75.7545 81.0667 75.1545 80.92L73.5145 80.54C72.4879 80.2867 71.7212 79.9133 71.2145 79.42C70.7212 78.9133 70.4745 78.2933 70.4745 77.56C70.4745 76.64 70.8145 75.92 71.4945 75.4C72.1879 74.8667 73.1345 74.6 74.3345 74.6C75.5212 74.6 76.4745 74.8667 77.1945 75.4C77.9279 75.9333 78.3412 76.68 78.4345 77.64H76.5145C76.4345 77.16 76.2012 76.7933 75.8145 76.54C75.4412 76.2733 74.9279 76.14 74.2745 76.14C73.6612 76.14 73.1879 76.2533 72.8545 76.48C72.5345 76.6933 72.3745 76.9933 72.3745 77.38C72.3745 77.7 72.4945 77.9667 72.7345 78.18C72.9879 78.3933 73.4012 78.5733 73.9745 78.72L75.6545 79.14C76.6279 79.38 77.3612 79.7733 77.8545 80.32C78.3479 80.8533 78.5945 81.5 78.5945 82.26C78.5945 83.18 78.2345 83.9 77.5145 84.42C76.8079 84.94 75.8145 85.2 74.5345 85.2ZM80.5225 85V74.8H82.5025V77.2H82.6025V85H80.5225ZM87.4025 85V78.34C87.4025 77.6467 87.2425 77.14 86.9225 76.82C86.6025 76.5 86.1425 76.34 85.5425 76.34C84.9825 76.34 84.4758 76.4733 84.0225 76.74C83.5825 76.9933 83.2358 77.3533 82.9825 77.82C82.7292 78.2733 82.6025 78.8133 82.6025 79.44L82.3425 77.06C82.6758 76.3 83.1758 75.7 83.8425 75.26C84.5225 74.82 85.2825 74.6 86.1225 74.6C87.1358 74.6 87.9425 74.8933 88.5425 75.48C89.1558 76.0667 89.4625 76.84 89.4625 77.8V85H87.4025ZM94.2825 85V78.34C94.2825 77.6467 94.1158 77.14 93.7825 76.82C93.4625 76.5 93.0025 76.34 92.4025 76.34C91.8558 76.34 91.3558 76.4733 90.9025 76.74C90.4625 76.9933 90.1092 77.3533 89.8425 77.82C89.5892 78.2733 89.4625 78.8133 89.4625 79.44L89.0425 77.06C89.3892 76.3 89.9092 75.7 90.6025 75.26C91.3092 74.82 92.0958 74.6 92.9625 74.6C93.9892 74.6 94.8092 74.9 95.4225 75.5C96.0358 76.0867 96.3425 76.8733 96.3425 77.86V85H94.2825ZM105.339 85C105.272 84.7467 105.225 84.4667 105.199 84.16C105.185 83.8533 105.179 83.48 105.179 83.04H105.079V78.18C105.079 77.5267 104.912 77.04 104.579 76.72C104.259 76.3867 103.745 76.22 103.039 76.22C102.359 76.22 101.812 76.3533 101.399 76.62C100.999 76.8867 100.765 77.2667 100.699 77.76H98.7186C98.8119 76.8 99.2453 76.0333 100.019 75.46C100.792 74.8867 101.825 74.6 103.119 74.6C104.452 74.6 105.452 74.9133 106.119 75.54C106.785 76.1533 107.119 77.06 107.119 78.26V83.04C107.119 83.3467 107.139 83.66 107.179 83.98C107.219 84.3 107.279 84.64 107.359 85H105.339ZM101.819 85.2C100.779 85.2 99.9519 84.9467 99.3386 84.44C98.7253 83.92 98.4186 83.22 98.4186 82.34C98.4186 81.4333 98.7386 80.72 99.3786 80.2C100.032 79.6667 100.965 79.3067 102.179 79.12L105.539 78.58V80.04L102.499 80.52C101.819 80.6267 101.305 80.8067 100.959 81.06C100.625 81.3133 100.459 81.68 100.459 82.16C100.459 82.6267 100.612 82.98 100.919 83.22C101.239 83.4467 101.699 83.56 102.299 83.56C103.099 83.56 103.759 83.3667 104.279 82.98C104.812 82.5933 105.079 82.1067 105.079 81.52L105.339 83C105.099 83.7067 104.672 84.2533 104.059 84.64C103.445 85.0133 102.699 85.2 101.819 85.2ZM109.937 85V74.8H111.917V77.34H112.017V85H109.937ZM112.017 79.68L111.757 77.26C111.997 76.3933 112.41 75.7333 112.997 75.28C113.583 74.8267 114.283 74.6 115.097 74.6C115.403 74.6 115.617 74.6267 115.737 74.68V76.64C115.67 76.6133 115.577 76.6 115.457 76.6C115.337 76.5867 115.19 76.58 115.017 76.58C114.017 76.58 113.263 76.84 112.757 77.36C112.263 77.88 112.017 78.6533 112.017 79.68ZM122.167 85.2C120.981 85.2 120.107 84.9267 119.547 84.38C119.001 83.82 118.727 83 118.727 81.92V72.46L120.787 71.68V81.94C120.787 82.4733 120.927 82.8667 121.207 83.12C121.487 83.3733 121.941 83.5 122.567 83.5C122.807 83.5 123.021 83.48 123.207 83.44C123.394 83.4 123.554 83.3533 123.687 83.3V84.98C123.541 85.0467 123.334 85.1 123.067 85.14C122.801 85.18 122.501 85.2 122.167 85.2ZM116.687 76.46V74.8H123.687V76.46H116.687ZM135.965 85.2C134.965 85.2 134.038 85.02 133.185 84.66C132.331 84.2867 131.591 83.7733 130.965 83.12C130.351 82.4533 129.871 81.6667 129.525 80.76C129.178 79.8533 129.005 78.86 129.005 77.78C129.005 76.7 129.171 75.7133 129.505 74.82C129.851 73.9133 130.331 73.1333 130.945 72.48C131.571 71.8133 132.311 71.3 133.165 70.94C134.018 70.58 134.945 70.4 135.945 70.4C137.065 70.4 138.071 70.6267 138.965 71.08C139.858 71.52 140.585 72.1467 141.145 72.96C141.718 73.7733 142.071 74.72 142.205 75.8H140.125C139.951 74.6667 139.491 73.7867 138.745 73.16C138.011 72.52 137.085 72.2 135.965 72.2C135.018 72.2 134.178 72.4333 133.445 72.9C132.725 73.3533 132.165 74 131.765 74.84C131.365 75.6667 131.165 76.6467 131.165 77.78C131.165 78.9 131.365 79.8867 131.765 80.74C132.178 81.58 132.745 82.2333 133.465 82.7C134.185 83.1667 135.018 83.4 135.965 83.4C137.085 83.4 138.018 83.0867 138.765 82.46C139.525 81.82 139.985 80.9333 140.145 79.8H142.245C142.098 80.8933 141.738 81.8467 141.165 82.66C140.591 83.46 139.858 84.0867 138.965 84.54C138.085 84.98 137.085 85.2 135.965 85.2ZM144.351 85V74.8H146.431V85H144.351ZM144.251 72.8V70.46H146.551V72.8H144.251ZM153.613 85.2C152.426 85.2 151.553 84.9267 150.993 84.38C150.446 83.82 150.173 83 150.173 81.92V72.46L152.233 71.68V81.94C152.233 82.4733 152.373 82.8667 152.653 83.12C152.933 83.3733 153.386 83.5 154.013 83.5C154.253 83.5 154.466 83.48 154.653 83.44C154.839 83.4 154.999 83.3533 155.133 83.3V84.98C154.986 85.0467 154.779 85.1 154.513 85.14C154.246 85.18 153.946 85.2 153.613 85.2ZM148.133 76.46V74.8H155.133V76.46H148.133ZM158.001 89.1L160.461 83.48L160.881 82.82L163.981 74.8H166.141L160.141 89.1H158.001ZM160.361 85L156.001 74.8H158.261L161.961 83.98L160.361 85Z" fill="#656565"/>
</svg>
