<svg xmlns="http://www.w3.org/2000/svg" viewBox="0 0 73.73 96.24"><defs><style>.cls-1{fill:#ffeb3b;}.cls-2{fill:#f4e789;}.cls-3{fill:#fefefe;}</style></defs><g id="Layer_2" data-name="Layer 2"><g id="Layer_1-2" data-name="Layer 1"><path class="cls-1" d="M36.85,0a35.1,35.1,0,0,1,21,6.57,35.79,35.79,0,0,1,15.4,24.56c1.64,10.49-1,20-7.38,28.48-9,12-17.92,24-26.88,35.93-.16.23-.31.47-.46.7h-1.7q0-23.58,0-47.16l1.49-.18a12.11,12.11,0,0,0,9.58-17.1c-2.15-4.66-6-6.92-11.07-7.23Z"/><path class="cls-2" d="M36.85,49.08q0,23.58,0,47.16H35.15c-1.71-2.58-3.65-5-5.5-7.47C22.09,78.62,14.48,68.53,7,58.35A35.54,35.54,0,0,1,.15,40,36.85,36.85,0,0,1,24.08,2.26,35,35,0,0,1,36.85,0V24.57l-.37,0a12.24,12.24,0,0,0,.37,24.47Z"/><path class="cls-3" d="M36.88,61.59a27.1,27.1,0,0,1-.83-54.18c.27,0,.55,0,.83-.07,11.2.68,19.74,5.67,24.51,16A26.81,26.81,0,0,1,40.17,61.18Z"/></g></g></svg>